<svg width="310" height="148" viewBox="0 0 310 148" fill="none" xmlns="http://www.w3.org/2000/svg">
<g clip-path="url(#clip0_65_14997)">
<path d="M181.843 69.8828H180.443V71.2828H181.843V69.8828Z" fill="#4C3C8D"/>
<path d="M187.376 69.8828H185.976V71.2828H187.376V69.8828Z" fill="#4C3C8D"/>
<path d="M192.909 69.8828H191.509V71.2828H192.909V69.8828Z" fill="#4C3C8D"/>
<path d="M198.442 69.8828H197.042V71.2828H198.442V69.8828Z" fill="#4C3C8D"/>
<path d="M203.976 69.8828H202.576V71.2828H203.976V69.8828Z" fill="#4C3C8D"/>
<path d="M209.509 69.8828H208.109V71.2828H209.509V69.8828Z" fill="#4C3C8D"/>
<path d="M215.042 69.8828H213.642V71.2828H215.042V69.8828Z" fill="#4C3C8D"/>
<path d="M220.575 69.8828H219.175V71.2828H220.575V69.8828Z" fill="#4C3C8D"/>
<path d="M226.108 69.8828H224.708V71.2828H226.108V69.8828Z" fill="#4C3C8D"/>
<path d="M231.641 69.8828H230.241V71.2828H231.641V69.8828Z" fill="#4C3C8D"/>
<path d="M237.175 69.8828H235.775V71.2828H237.175V69.8828Z" fill="#4C3C8D"/>
<path d="M242.708 69.8828H241.308V71.2828H242.708V69.8828Z" fill="#4C3C8D"/>
<path d="M248.241 69.8828H246.841V71.2828H248.241V69.8828Z" fill="#4C3C8D"/>
<path d="M253.774 69.8828H252.374V71.2828H253.774V69.8828Z" fill="#4C3C8D"/>
<path d="M181.843 75.5088H180.443V76.9088H181.843V75.5088Z" fill="#4C3C8D"/>
<path d="M187.376 75.5088H185.976V76.9088H187.376V75.5088Z" fill="#4C3C8D"/>
<path d="M192.909 75.5088H191.509V76.9088H192.909V75.5088Z" fill="#4C3C8D"/>
<path d="M198.442 75.5088H197.042V76.9088H198.442V75.5088Z" fill="#4C3C8D"/>
<path d="M203.976 75.5088H202.576V76.9088H203.976V75.5088Z" fill="#4C3C8D"/>
<path d="M209.509 75.5088H208.109V76.9088H209.509V75.5088Z" fill="#4C3C8D"/>
<path d="M215.042 75.5088H213.642V76.9088H215.042V75.5088Z" fill="#4C3C8D"/>
<path d="M220.575 75.5088H219.175V76.9088H220.575V75.5088Z" fill="#4C3C8D"/>
<path d="M226.108 75.5088H224.708V76.9088H226.108V75.5088Z" fill="#4C3C8D"/>
<path d="M231.641 75.5088H230.241V76.9088H231.641V75.5088Z" fill="#4C3C8D"/>
<path d="M237.175 75.5088H235.775V76.9088H237.175V75.5088Z" fill="#4C3C8D"/>
<path d="M242.708 75.5088H241.308V76.9088H242.708V75.5088Z" fill="#4C3C8D"/>
<path d="M248.241 75.5088H246.841V76.9088H248.241V75.5088Z" fill="#4C3C8D"/>
<path d="M253.774 75.5088H252.374V76.9088H253.774V75.5088Z" fill="#4C3C8D"/>
<path d="M181.843 81.1338H180.443V82.5338H181.843V81.1338Z" fill="#4C3C8D"/>
<path d="M187.376 81.1338H185.976V82.5338H187.376V81.1338Z" fill="#4C3C8D"/>
<path d="M192.909 81.1338H191.509V82.5338H192.909V81.1338Z" fill="#4C3C8D"/>
<path d="M198.442 81.1338H197.042V82.5338H198.442V81.1338Z" fill="#4C3C8D"/>
<path d="M203.976 81.1338H202.576V82.5338H203.976V81.1338Z" fill="#4C3C8D"/>
<path d="M209.509 81.1338H208.109V82.5338H209.509V81.1338Z" fill="#4C3C8D"/>
<path d="M215.042 81.1338H213.642V82.5338H215.042V81.1338Z" fill="#4C3C8D"/>
<path d="M220.575 81.1338H219.175V82.5338H220.575V81.1338Z" fill="#4C3C8D"/>
<path d="M226.108 81.1338H224.708V82.5338H226.108V81.1338Z" fill="#4C3C8D"/>
<path d="M231.641 81.1338H230.241V82.5338H231.641V81.1338Z" fill="#4C3C8D"/>
<path d="M237.175 81.1338H235.775V82.5338H237.175V81.1338Z" fill="#4C3C8D"/>
<path d="M242.708 81.1338H241.308V82.5338H242.708V81.1338Z" fill="#4C3C8D"/>
<path d="M248.241 81.1338H246.841V82.5338H248.241V81.1338Z" fill="#4C3C8D"/>
<path d="M253.774 81.1338H252.374V82.5338H253.774V81.1338Z" fill="#4C3C8D"/>
<path d="M181.843 86.7598H180.443V88.1598H181.843V86.7598Z" fill="#4C3C8D"/>
<path d="M187.376 86.7598H185.976V88.1598H187.376V86.7598Z" fill="#4C3C8D"/>
<path d="M192.909 86.7598H191.509V88.1598H192.909V86.7598Z" fill="#4C3C8D"/>
<path d="M198.442 86.7598H197.042V88.1598H198.442V86.7598Z" fill="#4C3C8D"/>
<path d="M203.976 86.7598H202.576V88.1598H203.976V86.7598Z" fill="#4C3C8D"/>
<path d="M209.509 86.7598H208.109V88.1598H209.509V86.7598Z" fill="#4C3C8D"/>
<path d="M215.042 86.7598H213.642V88.1598H215.042V86.7598Z" fill="#4C3C8D"/>
<path d="M220.575 86.7598H219.175V88.1598H220.575V86.7598Z" fill="#4C3C8D"/>
<path d="M226.108 86.7598H224.708V88.1598H226.108V86.7598Z" fill="#4C3C8D"/>
<path d="M231.641 86.7598H230.241V88.1598H231.641V86.7598Z" fill="#4C3C8D"/>
<path d="M237.175 86.7598H235.775V88.1598H237.175V86.7598Z" fill="#4C3C8D"/>
<path d="M242.708 86.7598H241.308V88.1598H242.708V86.7598Z" fill="#4C3C8D"/>
<path d="M248.241 86.7598H246.841V88.1598H248.241V86.7598Z" fill="#4C3C8D"/>
<path d="M253.774 86.7598H252.374V88.1598H253.774V86.7598Z" fill="#4C3C8D"/>
<path d="M181.843 92.3848H180.443V93.7848H181.843V92.3848Z" fill="#4C3C8D"/>
<path d="M187.376 92.3848H185.976V93.7848H187.376V92.3848Z" fill="#4C3C8D"/>
<path d="M192.909 92.3848H191.509V93.7848H192.909V92.3848Z" fill="#4C3C8D"/>
<path d="M198.442 92.3848H197.042V93.7848H198.442V92.3848Z" fill="#4C3C8D"/>
<path d="M203.976 92.3848H202.576V93.7848H203.976V92.3848Z" fill="#4C3C8D"/>
<path d="M209.509 92.3848H208.109V93.7848H209.509V92.3848Z" fill="#4C3C8D"/>
<path d="M215.042 92.3848H213.642V93.7848H215.042V92.3848Z" fill="#4C3C8D"/>
<path d="M220.575 92.3848H219.175V93.7848H220.575V92.3848Z" fill="#4C3C8D"/>
<path d="M226.108 92.3848H224.708V93.7848H226.108V92.3848Z" fill="#4C3C8D"/>
<path d="M231.641 92.3848H230.241V93.7848H231.641V92.3848Z" fill="#4C3C8D"/>
<path d="M237.175 92.3848H235.775V93.7848H237.175V92.3848Z" fill="#4C3C8D"/>
<path d="M242.708 92.3848H241.308V93.7848H242.708V92.3848Z" fill="#4C3C8D"/>
<path d="M248.241 92.3848H246.841V93.7848H248.241V92.3848Z" fill="#4C3C8D"/>
<path d="M253.774 92.3848H252.374V93.7848H253.774V92.3848Z" fill="#4C3C8D"/>
<path d="M181.843 98.0107H180.443V99.4108H181.843V98.0107Z" fill="#4C3C8D"/>
<path d="M187.376 98.0107H185.976V99.4108H187.376V98.0107Z" fill="#4C3C8D"/>
<path d="M192.909 98.0107H191.509V99.4108H192.909V98.0107Z" fill="#4C3C8D"/>
<path d="M198.442 98.0107H197.042V99.4108H198.442V98.0107Z" fill="#4C3C8D"/>
<path d="M203.976 98.0107H202.576V99.4108H203.976V98.0107Z" fill="#4C3C8D"/>
<path d="M209.509 98.0107H208.109V99.4108H209.509V98.0107Z" fill="#4C3C8D"/>
<path d="M215.042 98.0107H213.642V99.4108H215.042V98.0107Z" fill="#4C3C8D"/>
<path d="M220.575 98.0107H219.175V99.4108H220.575V98.0107Z" fill="#4C3C8D"/>
<path d="M226.108 98.0107H224.708V99.4108H226.108V98.0107Z" fill="#4C3C8D"/>
<path d="M231.641 98.0107H230.241V99.4108H231.641V98.0107Z" fill="#4C3C8D"/>
<path d="M237.175 98.0107H235.775V99.4108H237.175V98.0107Z" fill="#4C3C8D"/>
<path d="M242.708 98.0107H241.308V99.4108H242.708V98.0107Z" fill="#4C3C8D"/>
<path d="M248.241 98.0107H246.841V99.4108H248.241V98.0107Z" fill="#4C3C8D"/>
<path d="M253.774 98.0107H252.374V99.4108H253.774V98.0107Z" fill="#4C3C8D"/>
<path d="M181.843 103.637H180.443V105.037H181.843V103.637Z" fill="#4C3C8D"/>
<path d="M187.376 103.637H185.976V105.037H187.376V103.637Z" fill="#4C3C8D"/>
<path d="M192.909 103.637H191.509V105.037H192.909V103.637Z" fill="#4C3C8D"/>
<path d="M198.442 103.637H197.042V105.037H198.442V103.637Z" fill="#4C3C8D"/>
<path d="M203.976 103.637H202.576V105.037H203.976V103.637Z" fill="#4C3C8D"/>
<path d="M209.509 103.637H208.109V105.037H209.509V103.637Z" fill="#4C3C8D"/>
<path d="M215.042 103.637H213.642V105.037H215.042V103.637Z" fill="#4C3C8D"/>
<path d="M220.575 103.637H219.175V105.037H220.575V103.637Z" fill="#4C3C8D"/>
<path d="M226.108 103.637H224.708V105.037H226.108V103.637Z" fill="#4C3C8D"/>
<path d="M231.641 103.637H230.241V105.037H231.641V103.637Z" fill="#4C3C8D"/>
<path d="M237.175 103.637H235.775V105.037H237.175V103.637Z" fill="#4C3C8D"/>
<path d="M242.708 103.637H241.308V105.037H242.708V103.637Z" fill="#4C3C8D"/>
<path d="M248.241 103.637H246.841V105.037H248.241V103.637Z" fill="#4C3C8D"/>
<path d="M253.774 103.637H252.374V105.037H253.774V103.637Z" fill="#4C3C8D"/>
<path d="M181.843 29.8818H180.443V31.2818H181.843V29.8818Z" fill="#4C3C8D"/>
<path d="M187.376 29.8818H185.976V31.2818H187.376V29.8818Z" fill="#4C3C8D"/>
<path d="M192.909 29.8818H191.509V31.2818H192.909V29.8818Z" fill="#4C3C8D"/>
<path d="M198.442 29.8818H197.042V31.2818H198.442V29.8818Z" fill="#4C3C8D"/>
<path d="M203.976 29.8818H202.576V31.2818H203.976V29.8818Z" fill="#4C3C8D"/>
<path d="M209.509 29.8818H208.109V31.2818H209.509V29.8818Z" fill="#4C3C8D"/>
<path d="M215.042 29.8818H213.642V31.2818H215.042V29.8818Z" fill="#4C3C8D"/>
<path d="M220.575 29.8818H219.175V31.2818H220.575V29.8818Z" fill="#4C3C8D"/>
<path d="M226.108 29.8818H224.708V31.2818H226.108V29.8818Z" fill="#4C3C8D"/>
<path d="M231.641 29.8818H230.241V31.2818H231.641V29.8818Z" fill="#4C3C8D"/>
<path d="M237.175 29.8818H235.775V31.2818H237.175V29.8818Z" fill="#4C3C8D"/>
<path d="M242.708 29.8818H241.308V31.2818H242.708V29.8818Z" fill="#4C3C8D"/>
<path d="M248.241 29.8818H246.841V31.2818H248.241V29.8818Z" fill="#4C3C8D"/>
<path d="M253.774 29.8818H252.374V31.2818H253.774V29.8818Z" fill="#4C3C8D"/>
<path d="M181.843 35.5068H180.443V36.9068H181.843V35.5068Z" fill="#4C3C8D"/>
<path d="M187.376 35.5068H185.976V36.9068H187.376V35.5068Z" fill="#4C3C8D"/>
<path d="M192.909 35.5068H191.509V36.9068H192.909V35.5068Z" fill="#4C3C8D"/>
<path d="M198.442 35.5068H197.042V36.9068H198.442V35.5068Z" fill="#4C3C8D"/>
<path d="M203.976 35.5068H202.576V36.9068H203.976V35.5068Z" fill="#4C3C8D"/>
<path d="M209.509 35.5068H208.109V36.9068H209.509V35.5068Z" fill="#4C3C8D"/>
<path d="M215.042 35.5068H213.642V36.9068H215.042V35.5068Z" fill="#4C3C8D"/>
<path d="M220.575 35.5068H219.175V36.9068H220.575V35.5068Z" fill="#4C3C8D"/>
<path d="M226.108 35.5068H224.708V36.9068H226.108V35.5068Z" fill="#4C3C8D"/>
<path d="M231.641 35.5068H230.241V36.9068H231.641V35.5068Z" fill="#4C3C8D"/>
<path d="M237.175 35.5068H235.775V36.9068H237.175V35.5068Z" fill="#4C3C8D"/>
<path d="M242.708 35.5068H241.308V36.9068H242.708V35.5068Z" fill="#4C3C8D"/>
<path d="M248.241 35.5068H246.841V36.9068H248.241V35.5068Z" fill="#4C3C8D"/>
<path d="M253.774 35.5068H252.374V36.9068H253.774V35.5068Z" fill="#4C3C8D"/>
<path d="M181.843 41.1328H180.443V42.5328H181.843V41.1328Z" fill="#4C3C8D"/>
<path d="M187.376 41.1328H185.976V42.5328H187.376V41.1328Z" fill="#4C3C8D"/>
<path d="M192.909 41.1328H191.509V42.5328H192.909V41.1328Z" fill="#4C3C8D"/>
<path d="M198.442 41.1328H197.042V42.5328H198.442V41.1328Z" fill="#4C3C8D"/>
<path d="M203.976 41.1328H202.576V42.5328H203.976V41.1328Z" fill="#4C3C8D"/>
<path d="M209.509 41.1328H208.109V42.5328H209.509V41.1328Z" fill="#4C3C8D"/>
<path d="M215.042 41.1328H213.642V42.5328H215.042V41.1328Z" fill="#4C3C8D"/>
<path d="M220.575 41.1328H219.175V42.5328H220.575V41.1328Z" fill="#4C3C8D"/>
<path d="M226.108 41.1328H224.708V42.5328H226.108V41.1328Z" fill="#4C3C8D"/>
<path d="M231.641 41.1328H230.241V42.5328H231.641V41.1328Z" fill="#4C3C8D"/>
<path d="M237.175 41.1328H235.775V42.5328H237.175V41.1328Z" fill="#4C3C8D"/>
<path d="M242.708 41.1328H241.308V42.5328H242.708V41.1328Z" fill="#4C3C8D"/>
<path d="M248.241 41.1328H246.841V42.5328H248.241V41.1328Z" fill="#4C3C8D"/>
<path d="M253.774 41.1328H252.374V42.5328H253.774V41.1328Z" fill="#4C3C8D"/>
<path d="M181.843 46.7578H180.443V48.1578H181.843V46.7578Z" fill="#4C3C8D"/>
<path d="M187.376 46.7578H185.976V48.1578H187.376V46.7578Z" fill="#4C3C8D"/>
<path d="M192.909 46.7578H191.509V48.1578H192.909V46.7578Z" fill="#4C3C8D"/>
<path d="M198.442 46.7578H197.042V48.1578H198.442V46.7578Z" fill="#4C3C8D"/>
<path d="M203.976 46.7578H202.576V48.1578H203.976V46.7578Z" fill="#4C3C8D"/>
<path d="M209.509 46.7578H208.109V48.1578H209.509V46.7578Z" fill="#4C3C8D"/>
<path d="M215.042 46.7578H213.642V48.1578H215.042V46.7578Z" fill="#4C3C8D"/>
<path d="M220.575 46.7578H219.175V48.1578H220.575V46.7578Z" fill="#4C3C8D"/>
<path d="M226.108 46.7578H224.708V48.1578H226.108V46.7578Z" fill="#4C3C8D"/>
<path d="M231.641 46.7578H230.241V48.1578H231.641V46.7578Z" fill="#4C3C8D"/>
<path d="M237.175 46.7578H235.775V48.1578H237.175V46.7578Z" fill="#4C3C8D"/>
<path d="M242.708 46.7578H241.308V48.1578H242.708V46.7578Z" fill="#4C3C8D"/>
<path d="M248.241 46.7578H246.841V48.1578H248.241V46.7578Z" fill="#4C3C8D"/>
<path d="M253.774 46.7578H252.374V48.1578H253.774V46.7578Z" fill="#4C3C8D"/>
<path d="M181.843 52.3838H180.443V53.7838H181.843V52.3838Z" fill="#4C3C8D"/>
<path d="M187.376 52.3838H185.976V53.7838H187.376V52.3838Z" fill="#4C3C8D"/>
<path d="M192.909 52.3838H191.509V53.7838H192.909V52.3838Z" fill="#4C3C8D"/>
<path d="M198.442 52.3838H197.042V53.7838H198.442V52.3838Z" fill="#4C3C8D"/>
<path d="M203.976 52.3838H202.576V53.7838H203.976V52.3838Z" fill="#4C3C8D"/>
<path d="M209.509 52.3838H208.109V53.7838H209.509V52.3838Z" fill="#4C3C8D"/>
<path d="M215.042 52.3838H213.642V53.7838H215.042V52.3838Z" fill="#4C3C8D"/>
<path d="M220.575 52.3838H219.175V53.7838H220.575V52.3838Z" fill="#4C3C8D"/>
<path d="M226.108 52.3838H224.708V53.7838H226.108V52.3838Z" fill="#4C3C8D"/>
<path d="M231.641 52.3838H230.241V53.7838H231.641V52.3838Z" fill="#4C3C8D"/>
<path d="M237.175 52.3838H235.775V53.7838H237.175V52.3838Z" fill="#4C3C8D"/>
<path d="M242.708 52.3838H241.308V53.7838H242.708V52.3838Z" fill="#4C3C8D"/>
<path d="M248.241 52.3838H246.841V53.7838H248.241V52.3838Z" fill="#4C3C8D"/>
<path d="M253.774 52.3838H252.374V53.7838H253.774V52.3838Z" fill="#4C3C8D"/>
<path d="M181.843 58.0098H180.443V59.4098H181.843V58.0098Z" fill="#4C3C8D"/>
<path d="M187.376 58.0098H185.976V59.4098H187.376V58.0098Z" fill="#4C3C8D"/>
<path d="M192.909 58.0098H191.509V59.4098H192.909V58.0098Z" fill="#4C3C8D"/>
<path d="M198.442 58.0098H197.042V59.4098H198.442V58.0098Z" fill="#4C3C8D"/>
<path d="M203.976 58.0098H202.576V59.4098H203.976V58.0098Z" fill="#4C3C8D"/>
<path d="M209.509 58.0098H208.109V59.4098H209.509V58.0098Z" fill="#4C3C8D"/>
<path d="M215.042 58.0098H213.642V59.4098H215.042V58.0098Z" fill="#4C3C8D"/>
<path d="M220.575 58.0098H219.175V59.4098H220.575V58.0098Z" fill="#4C3C8D"/>
<path d="M226.108 58.0098H224.708V59.4098H226.108V58.0098Z" fill="#4C3C8D"/>
<path d="M231.641 58.0098H230.241V59.4098H231.641V58.0098Z" fill="#4C3C8D"/>
<path d="M237.175 58.0098H235.775V59.4098H237.175V58.0098Z" fill="#4C3C8D"/>
<path d="M242.708 58.0098H241.308V59.4098H242.708V58.0098Z" fill="#4C3C8D"/>
<path d="M248.241 58.0098H246.841V59.4098H248.241V58.0098Z" fill="#4C3C8D"/>
<path d="M253.774 58.0098H252.374V59.4098H253.774V58.0098Z" fill="#4C3C8D"/>
<path d="M181.843 63.6348H180.443V65.0348H181.843V63.6348Z" fill="#4C3C8D"/>
<path d="M187.376 63.6348H185.976V65.0348H187.376V63.6348Z" fill="#4C3C8D"/>
<path d="M192.909 63.6348H191.509V65.0348H192.909V63.6348Z" fill="#4C3C8D"/>
<path d="M198.442 63.6348H197.042V65.0348H198.442V63.6348Z" fill="#4C3C8D"/>
<path d="M203.976 63.6348H202.576V65.0348H203.976V63.6348Z" fill="#4C3C8D"/>
<path d="M209.509 63.6348H208.109V65.0348H209.509V63.6348Z" fill="#4C3C8D"/>
<path d="M215.042 63.6348H213.642V65.0348H215.042V63.6348Z" fill="#4C3C8D"/>
<path d="M220.575 63.6348H219.175V65.0348H220.575V63.6348Z" fill="#4C3C8D"/>
<path d="M226.108 63.6348H224.708V65.0348H226.108V63.6348Z" fill="#4C3C8D"/>
<path d="M231.641 63.6348H230.241V65.0348H231.641V63.6348Z" fill="#4C3C8D"/>
<path d="M237.175 63.6348H235.775V65.0348H237.175V63.6348Z" fill="#4C3C8D"/>
<path d="M242.708 63.6348H241.308V65.0348H242.708V63.6348Z" fill="#4C3C8D"/>
<path d="M248.241 63.6348H246.841V65.0348H248.241V63.6348Z" fill="#4C3C8D"/>
<path d="M253.774 63.6348H252.374V65.0348H253.774V63.6348Z" fill="#4C3C8D"/>
<path d="M123.404 147.296C123.235 147.296 123.066 147.227 122.944 147.092C122.714 146.837 122.734 146.444 122.988 146.214L128.325 141.384C128.575 141.158 128.959 141.172 129.192 141.417L133.356 145.79L137.805 141.402C138.043 141.169 138.422 141.165 138.665 141.391L143.44 145.848L148.816 141.368C149.052 141.171 149.392 141.176 149.622 141.376L155.005 146.069C155.263 146.295 155.29 146.686 155.065 146.945C154.839 147.206 154.448 147.231 154.189 147.006L149.205 142.661L143.815 147.152C143.573 147.353 143.222 147.342 142.993 147.129L138.252 142.705L133.777 147.118C133.658 147.233 133.47 147.295 133.331 147.296C133.164 147.294 133.006 147.224 132.891 147.103L128.708 142.712L123.82 147.136C123.702 147.242 123.553 147.296 123.404 147.296ZM123.404 138.558C123.235 138.558 123.066 138.489 122.944 138.354C122.714 138.099 122.734 137.706 122.988 137.476L128.325 132.646C128.575 132.42 128.959 132.434 129.192 132.679L133.356 137.052L137.805 132.664C138.043 132.431 138.422 132.427 138.665 132.653L143.44 137.11L148.816 132.63C149.052 132.433 149.392 132.438 149.622 132.638L155.005 137.331C155.263 137.557 155.29 137.948 155.065 138.207C154.839 138.468 154.448 138.493 154.189 138.268L149.205 133.923L143.815 138.414C143.573 138.615 143.222 138.604 142.993 138.391L138.252 133.967L133.777 138.38C133.658 138.495 133.47 138.557 133.331 138.558C133.164 138.556 133.006 138.486 132.891 138.365L128.708 133.974L123.82 138.398C123.702 138.505 123.553 138.558 123.404 138.558ZM123.404 129.821C123.235 129.821 123.066 129.752 122.944 129.617C122.714 129.362 122.734 128.969 122.988 128.739L128.325 123.909C128.575 123.683 128.959 123.697 129.192 123.942L133.356 128.315L137.805 123.927C138.043 123.694 138.422 123.69 138.665 123.916L143.44 128.373L148.816 123.893C149.052 123.696 149.392 123.701 149.622 123.901L155.005 128.594C155.263 128.82 155.29 129.211 155.065 129.47C154.839 129.731 154.448 129.756 154.189 129.531L149.205 125.186L143.815 129.677C143.573 129.878 143.222 129.867 142.993 129.654L138.252 125.23L133.777 129.643C133.658 129.758 133.47 129.82 133.331 129.821C133.164 129.819 133.006 129.749 132.891 129.628L128.708 125.237L123.82 129.661C123.702 129.768 123.553 129.821 123.404 129.821Z" fill="#DBA102"/>
<path d="M297.405 139.572H228.96C222.414 139.572 217.108 134.266 217.108 127.72V13.646C217.108 7.09995 222.414 1.79395 228.96 1.79395H297.404C303.95 1.79395 309.256 7.09995 309.256 13.646V127.72C309.257 134.266 303.95 139.572 297.405 139.572Z" fill="#54C08A"/>
<path d="M217.108 67.459V100.796C220.17 100.026 222.441 97.262 222.441 93.961V74.294C222.442 70.993 220.171 68.229 217.108 67.459Z" fill="#4C3C8D"/>
<path d="M240.386 99.572H238.053C234.156 99.572 230.997 96.413 230.997 92.516V72.849C230.997 68.952 234.156 65.793 238.053 65.793H240.386C244.283 65.793 247.442 68.952 247.442 72.849V92.516C247.442 96.413 244.283 99.572 240.386 99.572Z" fill="#4C3C8D"/>
<path d="M232.058 59.6322H192.73H186.431V56.6302C186.431 55.8492 186.295 55.0942 186.1 54.3612C185.219 51.0552 182.508 48.4082 179.001 48.0732C176.473 47.8322 174.163 48.7462 172.504 50.3352C170.938 51.8352 169.951 53.9352 169.951 56.2742V57.1132C169.951 58.5042 168.824 59.6312 167.433 59.6312H138.437H90.9428C89.0678 59.6312 87.5478 58.1112 87.5478 56.2362V52.6122C87.5478 36.5992 74.5668 23.6182 58.5538 23.6182H42.9888C26.9758 23.6182 13.9948 36.5992 13.9948 52.6122V56.8852C13.9948 58.4022 12.7648 59.6322 11.2478 59.6322H9.46681C8.67781 59.6322 7.91681 59.7702 7.17781 59.9692C3.88181 60.8562 1.24482 63.5632 0.909818 67.0632C0.440818 71.9782 4.29381 76.1132 9.11181 76.1132H11.2478C12.7648 76.1132 13.9948 77.3432 13.9948 78.8602V85.8802C13.9948 101.893 26.9758 114.874 42.9888 114.874H58.5538C73.5658 114.874 85.9138 103.465 87.3978 88.8442C87.4968 87.8692 87.5478 86.8802 87.5478 85.8792V79.5082C87.5478 77.6332 89.0678 76.1132 90.9428 76.1132H110.75H166.747C168.517 76.1132 169.952 77.5482 169.952 79.3182V79.9652C169.952 84.2692 173.098 88.1122 177.382 88.5222C182.297 88.9912 186.432 85.1382 186.432 80.3212V76.1142H198.182C200.626 76.1142 202.608 78.0952 202.608 80.5392V89.4932C202.608 93.7972 205.754 97.6402 210.038 98.0492C214.953 98.5182 219.088 94.6662 219.088 89.8482V79.2092C222.256 79.6642 225.465 79.7762 228.55 79.6712V89.4932C228.55 93.7972 231.696 97.6402 235.981 98.0502C240.896 98.5192 245.031 94.6662 245.031 89.8492V77.2812V72.6052C245.029 65.4402 239.221 59.6322 232.058 59.6322ZM58.5528 98.3932H42.9878C36.0768 98.3932 30.4748 92.7912 30.4748 85.8802V82.6582V52.6142C30.4748 45.7032 36.0768 40.1012 42.9878 40.1012H58.5528C65.4638 40.1012 71.0658 45.7032 71.0658 52.6142V56.9622C71.0658 58.4372 69.8698 59.6332 68.3948 59.6332H53.7198C49.4158 59.6332 45.5728 62.7792 45.1638 67.0632C44.6948 71.9782 48.5478 76.1132 53.3658 76.1132H68.3968C69.8718 76.1132 71.0678 77.3092 71.0678 78.7842V85.8792C71.0678 89.0682 69.8648 91.9702 67.8998 94.1802C65.6068 96.7592 62.2748 98.3932 58.5528 98.3932Z" fill="#1B8354"/>
<path d="M277.491 65.0487C277.491 56.6997 270.723 49.9307 262.373 49.9307C254.024 49.9307 247.255 56.6987 247.255 65.0487C247.255 71.1927 250.922 76.4767 256.186 78.8417L248.854 104.05H275.336L268.428 78.9017C273.763 76.5657 277.491 71.2437 277.491 65.0487Z" fill="#4C3C8D"/>
<path d="M248.874 65.0487C248.874 56.9727 255.212 50.3947 263.183 49.9717C262.913 49.9577 262.647 49.9307 262.374 49.9307C254.025 49.9307 247.256 56.6987 247.256 65.0487C247.256 71.1927 250.923 76.4767 256.187 78.8417L248.855 104.05H250.473L257.805 78.8417C252.541 76.4767 248.874 71.1927 248.874 65.0487Z" fill="#1B8354"/>
<path d="M279.109 65.0487C279.109 56.6997 272.341 49.9307 263.991 49.9307C263.718 49.9307 263.452 49.9577 263.182 49.9717C271.153 50.3947 277.491 56.9727 277.491 65.0487C277.491 71.2437 273.763 76.5656 268.429 78.9007L275.337 104.049H276.955L270.047 78.9007C275.381 76.5656 279.109 71.2437 279.109 65.0487Z" fill="#1B8354"/>
<path d="M300.261 133.794C301.634 133.794 302.747 132.681 302.747 131.308C302.747 129.935 301.634 128.822 300.261 128.822C298.888 128.822 297.775 129.935 297.775 131.308C297.775 132.681 298.888 133.794 300.261 133.794Z" fill="#4C3C8D"/>
<path d="M299.942 128.683C298.561 128.683 297.442 129.802 297.442 131.183C297.442 131.781 297.66 132.322 298.01 132.752L301.274 129.074C300.887 128.83 300.433 128.683 299.942 128.683ZM301.963 129.723L298.708 133.345C299.073 133.554 299.49 133.683 299.941 133.683C301.322 133.683 302.441 132.564 302.441 131.183C302.442 130.636 302.261 130.134 301.963 129.723Z" fill="#1B8354"/>
<path d="M301.273 129.073L298.009 132.751C298.203 132.99 298.438 133.191 298.707 133.344L301.962 129.722C301.777 129.464 301.543 129.244 301.273 129.073Z" fill="#4C3C8D"/>
<path d="M226.928 133.793C228.301 133.793 229.414 132.68 229.414 131.307C229.414 129.934 228.301 128.821 226.928 128.821C225.555 128.821 224.442 129.934 224.442 131.307C224.442 132.68 225.555 133.793 226.928 133.793Z" fill="#4C3C8D"/>
<path d="M226.608 128.683C225.227 128.683 224.108 129.802 224.108 131.183C224.108 131.781 224.326 132.322 224.676 132.752L227.94 129.074C227.554 128.83 227.099 128.683 226.608 128.683ZM228.63 129.723L225.375 133.345C225.74 133.554 226.157 133.683 226.608 133.683C227.989 133.683 229.108 132.564 229.108 131.183C229.108 130.636 228.928 130.134 228.63 129.723Z" fill="#1B8354"/>
<path d="M227.94 129.073L224.676 132.751C224.87 132.99 225.105 133.191 225.374 133.344L228.629 129.722C228.443 129.464 228.21 129.244 227.94 129.073Z" fill="#4C3C8D"/>
<path d="M226.928 13.2005C228.301 13.2005 229.414 12.0875 229.414 10.7145C229.414 9.34154 228.301 8.22852 226.928 8.22852C225.555 8.22852 224.442 9.34154 224.442 10.7145C224.442 12.0875 225.555 13.2005 226.928 13.2005Z" fill="#4C3C8D"/>
<path d="M226.608 8.08984C225.227 8.08984 224.108 9.20884 224.108 10.5898C224.108 11.1878 224.326 11.7288 224.676 12.1588L227.94 8.48084C227.554 8.23684 227.099 8.08984 226.608 8.08984ZM228.63 9.12984L225.375 12.7518C225.74 12.9608 226.157 13.0898 226.608 13.0898C227.989 13.0898 229.108 11.9708 229.108 10.5898C229.108 10.0428 228.928 9.54084 228.63 9.12984Z" fill="#1B8354"/>
<path d="M227.94 8.48047L224.676 12.1585C224.87 12.3975 225.105 12.5985 225.374 12.7515L228.629 9.12946C228.443 8.87146 228.21 8.65147 227.94 8.48047Z" fill="#4C3C8D"/>
<path d="M300.153 13.2005C301.526 13.2005 302.639 12.0875 302.639 10.7145C302.639 9.34154 301.526 8.22852 300.153 8.22852C298.78 8.22852 297.667 9.34154 297.667 10.7145C297.667 12.0875 298.78 13.2005 300.153 13.2005Z" fill="#4C3C8D"/>
<path d="M299.834 8.08984C298.453 8.08984 297.334 9.20884 297.334 10.5898C297.334 11.1878 297.552 11.7288 297.902 12.1588L301.166 8.48084C300.779 8.23684 300.325 8.08984 299.834 8.08984ZM301.855 9.12984L298.6 12.7518C298.965 12.9608 299.382 13.0898 299.833 13.0898C301.214 13.0898 302.333 11.9708 302.333 10.5898C302.334 10.0428 302.153 9.54084 301.855 9.12984Z" fill="#1B8354"/>
<path d="M301.166 8.48047L297.902 12.1585C298.096 12.3975 298.331 12.5985 298.6 12.7515L301.855 9.12946C301.669 8.87146 301.435 8.65147 301.166 8.48047Z" fill="#4C3C8D"/>
</g>
<defs>
<clipPath id="clip0_65_14997">
<rect width="310" height="147.915" fill="white"/>
</clipPath>
</defs>
</svg>
